<svg width="109" height="13" viewBox="0 0 109 13" fill="none" xmlns="http://www.w3.org/2000/svg">
    <path d="M5.07913 0H0.649001C0.246902 0 0 0.247071 0 0.64944V11.4428C0 11.8452 0.246902 12.0923 0.649001 12.0923H5.07913C6.08085 12.0923 6.878 11.8099 7.4494 11.2522C8.0208 10.6946 8.31003 9.89689 8.31003 8.89449V3.19778C8.31003 2.19539 8.0208 1.39771 7.4494 0.840037C6.878 0.282367 6.08085 0 5.07913 0ZM5.49534 3.31073V8.78861C5.49534 9.09215 5.43891 9.31098 5.33309 9.41687C5.22728 9.52275 5.00859 9.57923 4.70525 9.57923H2.81469V2.52011H4.6982C5.00154 2.52011 5.22022 2.57658 5.32604 2.68247C5.43891 2.78835 5.49534 3.00719 5.49534 3.31073Z" fill="#484848" />
    <path d="M17.4665 0H11.5972C11.1951 0 10.9482 0.247071 10.9482 0.64944V11.4428C10.9482 11.8452 11.1951 12.0923 11.5972 12.0923H17.4665C17.8545 12.0923 18.0943 11.8452 18.0943 11.4428V10.2216C18.0943 9.81924 17.8545 9.57217 17.4665 9.57217H13.77V7.22148H16.7892C17.1913 7.22148 17.4382 6.97441 17.4382 6.57204V5.35081C17.4382 4.94844 17.1913 4.70137 16.7892 4.70137H13.77V2.51305H17.4665C17.8545 2.51305 18.0943 2.26598 18.0943 1.86361V0.64238C18.0943 0.247069 17.8545 0 17.4665 0Z" fill="#484848" />
    <path d="M28.4008 0H26.7148C26.3409 0 26.087 0.218833 26.0235 0.592966L24.3587 8.36506L22.7009 0.600027C22.6303 0.218834 22.3764 0 22.0096 0H20.3165C20.0555 0 19.865 0.0776501 19.7592 0.225892C19.6887 0.324719 19.6181 0.494139 19.6957 0.748268L22.4752 11.4923C22.5457 11.8734 22.8067 12.0923 23.1876 12.0923H25.5367C25.8895 12.0923 26.1434 11.8805 26.2281 11.5134L29.0145 0.74121C29.0639 0.522377 29.0286 0.345899 28.9228 0.211776C28.817 0.0705934 28.6336 0 28.4008 0Z" fill="#484848" />
    <path d="M37.4727 5.28732C36.6614 4.95554 35.7232 4.74377 34.6791 4.65906C33.4517 4.55318 33.4517 4.10845 33.4517 3.96021V3.62137C33.4517 3.00723 33.5716 2.79545 33.6421 2.7178C33.7056 2.64721 33.9032 2.52721 34.4393 2.52721H35.1377C35.6667 2.52721 35.8713 2.64015 35.9419 2.70369C36.0124 2.76722 36.1253 2.95075 36.1253 3.45901V3.5649C36.1253 3.96727 36.3722 4.21434 36.7743 4.21434H38.298C38.7001 4.21434 38.947 3.96727 38.947 3.5649V3.22606C38.947 2.22366 38.6507 1.42598 38.0793 0.861255C37.5009 0.296525 36.6967 0.0141602 35.6809 0.0141602H33.889C32.8873 0.0141602 32.0831 0.303585 31.5117 0.861255C30.9333 1.42598 30.644 2.22366 30.644 3.22606V3.85432C30.644 4.64494 30.7992 5.30144 31.1026 5.81676C31.413 6.33913 31.8151 6.69915 32.2877 6.88268C32.718 7.04504 33.1836 7.18623 33.6845 7.29211C34.1853 7.398 34.6509 7.46859 35.0742 7.50389C35.4481 7.53212 35.7585 7.63095 35.9983 7.79331C36.2029 7.92743 36.3016 8.11097 36.3016 8.3651V8.58393C36.3016 8.9863 36.2311 9.27573 36.1041 9.39573C36.0124 9.4875 35.8008 9.58633 35.314 9.58633H34.4675C33.9384 9.58633 33.7339 9.47338 33.6633 9.40985C33.5434 9.2969 33.4799 9.03572 33.4799 8.66864V8.52746C33.4799 8.12509 33.233 7.87802 32.8309 7.87802H31.3072C30.9051 7.87802 30.6582 8.12509 30.6582 8.52746V8.88747C30.6582 9.88987 30.9544 10.6876 31.5258 11.2523C32.1043 11.817 32.9014 12.0994 33.9032 12.0994H35.8572C36.8589 12.0994 37.6561 11.81 38.2345 11.2523C38.813 10.6876 39.1022 9.88987 39.1022 8.88747V8.28039C39.1022 7.51801 38.947 6.87563 38.6437 6.37443C38.3403 5.84499 37.9524 5.48498 37.4727 5.28732Z" fill="#FF8400" />
    <path d="M49.331 0H47.8214C47.4193 0 47.1724 0.247071 47.1724 0.64944V8.78861C47.1724 9.09215 47.116 9.31098 47.0101 9.41687C46.9043 9.52275 46.6856 9.57923 46.3823 9.57923H45.1478C44.8586 9.57923 44.6469 9.52275 44.5411 9.41687C44.4353 9.31098 44.3789 9.09215 44.3789 8.78861V0.64944C44.3789 0.247071 44.132 0 43.7299 0H42.2061C41.804 0 41.5571 0.247071 41.5571 0.64944V8.89449C41.5571 9.91101 41.8464 10.7087 42.4107 11.2593C42.9751 11.8099 43.7722 12.0923 44.788 12.0923H46.7632C47.765 12.0923 48.5621 11.8099 49.1335 11.2522C49.7049 10.6946 49.9941 9.89689 49.9941 8.89449V0.628264C49.9941 0.247071 49.7402 0 49.331 0Z" fill="#FF8400" />
    <path d="M57.747 0H53.3663C52.9642 0 52.7173 0.247071 52.7173 0.64944V11.4428C52.7173 11.8452 52.9642 12.0923 53.3663 12.0923H54.89C55.2921 12.0923 55.539 11.8452 55.539 11.4428V8.11799H57.747C58.7488 8.11799 59.5459 7.83562 60.1102 7.27795C60.6746 6.72028 60.9638 5.9226 60.9638 4.92021V3.19778C60.9638 2.19539 60.6746 1.40477 60.1102 0.840037C59.5459 0.289426 58.7488 0 57.747 0ZM58.1421 3.31073V4.82138C58.1421 5.11786 58.0856 5.32964 57.9798 5.43552C57.8811 5.54141 57.6694 5.59788 57.3661 5.59788H55.532V2.52717H57.3661C57.6694 2.52717 57.8811 2.58364 57.9798 2.68953C58.0856 2.78129 58.1421 3.00013 58.1421 3.31073Z" fill="#FF8400" />
    <path d="M69.7746 0H63.9053C63.5032 0 63.2563 0.247071 63.2563 0.64944V11.4428C63.2563 11.8452 63.5032 12.0923 63.9053 12.0923H69.7746C70.1626 12.0923 70.4024 11.8452 70.4024 11.4428V10.2216C70.4024 9.81924 70.1626 9.57217 69.7746 9.57217H66.0781V7.22148H69.0903C69.4924 7.22148 69.7393 6.97441 69.7393 6.57204V5.35081C69.7393 4.94844 69.4924 4.70137 69.0903 4.70137H66.0781V2.51305H69.7746C70.1626 2.51305 70.4024 2.26598 70.4024 1.86361V0.64238C70.4024 0.247069 70.1626 0 69.7746 0Z" fill="#FF8400" />
    <path d="M79.5168 7.45445C80.5326 6.93913 81.0476 5.98615 81.0476 4.61668V3.21898C81.0476 2.21658 80.7513 1.4189 80.1799 0.854175C79.6015 0.289445 78.8043 0.00708008 77.8026 0.00708008H73.5277C73.1256 0.00708008 72.8787 0.254148 72.8787 0.656518V11.4499C72.8787 11.8523 73.1256 12.0994 73.5277 12.0994H75.0514C75.4535 12.0994 75.7004 11.8523 75.7004 11.4499V7.83564H76.6739L78.3881 11.5417C78.4728 11.7605 78.5997 11.9158 78.7549 11.9935C78.889 12.0641 79.0794 12.0923 79.3405 12.0923H80.7936C81.0405 12.0923 81.224 12.0146 81.3227 11.8664C81.4285 11.7182 81.4356 11.5276 81.3368 11.2734L79.5168 7.45445ZM78.2329 3.31075V4.70845C78.2329 4.98376 78.1694 5.18141 78.0566 5.2873C77.9296 5.40025 77.6968 5.46378 77.3934 5.46378H75.7075V2.52012H77.3934C77.7038 2.52012 77.9296 2.5766 78.0566 2.6966C78.1694 2.80955 78.2329 3.01427 78.2329 3.31075Z" fill="#FF8400" />
    <path d="M85.9855 0H84.4617C84.0597 0 83.8127 0.247071 83.8127 0.64944V11.4428C83.8127 11.8452 84.0597 12.0923 84.4617 12.0923H85.9855C86.3876 12.0923 86.6345 11.8452 86.6345 11.4428V0.64944C86.6274 0.247071 86.3805 0 85.9855 0Z" fill="#FF8400" />
    <path d="M94.5988 0H92.5883C91.5725 0 90.7753 0.282365 90.211 0.832976C89.6466 1.38359 89.3574 2.18127 89.3574 3.19778V8.89449C89.3574 9.91101 89.6466 10.7087 90.211 11.2593C90.7753 11.8099 91.5725 12.0923 92.5883 12.0923H94.5988C95.6146 12.0923 96.4118 11.8099 96.9761 11.2593C97.5405 10.7087 97.8297 9.91101 97.8297 8.89449V3.19778C97.8297 2.18127 97.5405 1.38359 96.9761 0.832976C96.4118 0.282365 95.6146 0 94.5988 0ZM95.015 3.31073V8.78861C95.015 9.09215 94.9586 9.31098 94.8528 9.41687C94.7469 9.52275 94.5283 9.57923 94.2249 9.57923H92.9481C92.6447 9.57923 92.4331 9.52275 92.3344 9.41687C92.2285 9.31098 92.1792 9.09215 92.1792 8.78861V3.31073C92.1792 3.00719 92.2356 2.78835 92.3344 2.68247C92.4331 2.57658 92.6447 2.52011 92.9481 2.52011H94.2249C94.5283 2.52011 94.7469 2.57658 94.8528 2.68247C94.9586 2.78835 95.015 3.00719 95.015 3.31073Z" fill="#FF8400" />
    <path d="M108.933 11.2734L107.106 7.45445C108.122 6.93913 108.637 5.98615 108.637 4.61668V3.21898C108.637 2.21658 108.341 1.4189 107.769 0.854175C107.191 0.289445 106.394 0.00708008 105.392 0.00708008H101.117C100.715 0.00708008 100.468 0.254148 100.468 0.656518V11.4499C100.468 11.8523 100.715 12.0994 101.117 12.0994H102.641C103.043 12.0994 103.29 11.8523 103.29 11.4499V7.83564H104.263L105.977 11.5417C106.062 11.7605 106.189 11.9158 106.344 11.9935C106.478 12.0641 106.669 12.0923 106.93 12.0923H108.383C108.63 12.0923 108.813 12.0146 108.912 11.8664C109.018 11.7182 109.032 11.5276 108.933 11.2734ZM105.822 3.31075V4.70845C105.822 4.98376 105.759 5.18141 105.646 5.2873C105.519 5.40025 105.286 5.46378 104.983 5.46378H103.297V2.52012H104.983C105.293 2.52012 105.519 2.5766 105.646 2.6966C105.759 2.80955 105.822 3.01427 105.822 3.31075Z" fill="#FF8400" />
</svg>
