<svg width="195" height="250" viewBox="0 0 195 250" fill="none" xmlns="http://www.w3.org/2000/svg">
    <path d="M183.158 99.4571C181.685 96.2384 178.371 94.1233 174.781 94.1233H114.3L134.184 14.3916C135.197 10.2533 133.264 5.93104 129.398 3.99982C125.623 2.06861 120.928 2.98824 118.167 6.29889L2.17586 143.691C-0.125548 146.45 -0.67788 150.22 0.887076 153.531C2.45203 156.842 5.67403 158.865 9.26422 158.865H69.7451L49.861 238.597C48.8483 242.735 50.7816 247.057 54.6479 248.988C55.9367 249.632 57.4096 250 58.7904 250C61.4601 250 64.0377 248.896 65.7867 246.781L181.778 109.297C184.171 106.538 184.631 102.768 183.158 99.4571Z" fill="#FF8400" />
</svg>
