<svg width="18" height="25" viewBox="0 0 18 25" fill="none" xmlns="http://www.w3.org/2000/svg">
    <path d="M17.876 10.2847C17.734 9.97382 17.4144 9.76952 17.0682 9.76952H11.2363L13.1537 2.06832C13.2513 1.66861 13.0649 1.25112 12.6921 1.06459C12.3282 0.878055 11.8754 0.966881 11.6091 1.28665L0.424652 14.5572C0.202738 14.8237 0.149479 15.1879 0.300381 15.5077C0.451283 15.8274 0.761966 16.0229 1.10815 16.0229H6.94007L5.02272 23.7241C4.92508 24.1238 5.11149 24.5413 5.48431 24.7278C5.60858 24.79 5.7506 24.8255 5.88375 24.8255C6.14117 24.8255 6.38972 24.7189 6.55838 24.5146L17.7429 11.2351C17.9737 10.9687 18.018 10.6045 17.876 10.2847Z" fill="#FF8400" />
</svg>
